<svg xmlns="http://www.w3.org/2000/svg" viewBox="0 0 178 64" width="356" height="128"><title>VIBE</title><g><path d="M37.3 3C37.9 3 39 3.8 39.7 4.2C40.3 4.5 41.2 4.6 41.2 5.2C41.1 5.8 39.5 7.4 39.5 7.6C39.5 7.7 40.4 6.4 41 6.1C41.6 5.8 42.4 6.1 43 5.9C43.7 5.8 44 5.2 44.9 5.1C45.7 5 47.3 5.1 48 5.4C48.7 5.6 48.6 6.2 48.9 6.8C49.2 7.4 49.3 8.3 49.8 9C50.3 9.7 51.7 10.1 51.8 10.9C51.8 11.8 49.9 13.5 50 13.9C50.2 14.3 52 13.4 52.7 13.6C53.3 13.8 53.8 14.5 54 15.2C54.2 15.9 54 16.9 53.7 17.7C53.5 18.5 53 19.6 52.5 19.9C51.9 20.3 51 19.4 50.4 19.9C49.8 20.4 49.4 22.5 48.9 22.9C48.4 23.3 47.7 22.2 47.6 22.3C47.5 22.4 48.7 23.4 48.5 23.6C48.2 23.9 46.2 23.3 46 23.8C45.8 24.2 47.1 25.5 47.4 26.4C47.7 27.3 47.8 28.2 48 29.2C48.3 30.2 48.9 31.7 48.8 32.3C48.7 32.9 47.4 32.6 47.4 33C47.4 33.4 48.2 33.9 48.5 34.8C48.9 35.7 49.5 37.6 49.4 38.6C49.3 39.7 48.4 40.1 48.1 41.1C47.8 42.1 47.9 43.4 47.6 44.5C47.3 45.6 46.4 46.9 46.2 47.9C46 48.9 46.6 49.9 46.3 50.3C45.9 50.6 44.9 50.2 44.1 50.3C43.2 50.4 41.8 51 41.2 50.8C40.6 50.7 40.9 49.5 40.6 49.5C40.2 49.5 40.1 50.3 39.2 50.7C38.4 51.1 36.5 51.2 35.5 51.7C34.4 52.2 33.7 53 33.1 53.6C32.5 54.3 32.2 55 31.6 55.4C31 55.8 30.2 55.3 29.5 55.8C28.8 56.4 28.1 58 27.1 58.6C26.1 59.3 24.7 59.2 23.4 59.5C22.2 59.8 21 60.2 19.8 60.4C18.5 60.7 16.1 61.2 15.8 61C15.5 60.8 18 59.2 17.9 58.9C17.9 58.7 15.4 59.7 15.5 59.4C15.7 59.1 19.4 57.4 18.9 57.3C18.3 57.2 12.6 59 12.3 58.6C12 58.3 17.5 55.4 17.3 55C17.1 54.5 12.2 56.2 11.1 56C10 55.8 10 54.7 10.7 53.9C11.5 53.1 15.7 51.7 15.5 51.3C15.4 50.8 10.6 51.7 10 51.3C9.5 50.8 11.3 49 12.3 48.6C13.3 48.2 15.4 49.3 15.8 48.9C16.2 48.6 14.5 47.2 14.8 46.6C15 45.9 16.2 45.4 17.6 45C18.9 44.5 22.8 43.9 23 43.6C23.2 43.4 20 43.3 18.6 43.5C17.3 43.6 14.8 45.1 14.8 44.5C14.9 43.9 18.4 41.1 19.1 40.1C19.9 39.1 18.9 39 19.1 38.3C19.4 37.6 20.1 36.5 20.8 36C21.5 35.5 23.1 35.7 23.4 35.4C23.6 35.1 23.3 34.4 22.4 34.2C21.5 34 19.8 34.7 18.2 34.4C16.5 34 13.2 33 12.5 32.1C11.8 31.3 13.4 29.6 14.1 29.1C14.7 28.5 15.9 29.2 16.2 28.8C16.5 28.3 15.5 27 15.8 26.6C16.1 26.1 18.8 26.4 18.2 26C17.5 25.5 12.6 24.4 11.9 23.8C11.2 23.1 13.6 22.7 14 21.8C14.3 21 13.2 19.4 14.2 18.9C15.2 18.4 18.8 18.4 19.9 18.6C21.1 18.8 20.7 20.1 21.2 20.2C21.8 20.3 22.4 19.2 23.4 19C24.4 18.9 26.5 19.6 27.2 19.2C27.9 18.8 27.3 17.2 27.8 16.4C28.4 15.6 31.2 14.6 30.6 14.2C30.1 13.8 25.7 14.1 24.8 13.9C23.8 13.6 24.6 13.5 25.1 12.7C25.6 12 27.1 10.4 27.8 9.3C28.5 8.3 28.6 6.9 29.3 6.2C30 5.6 31.1 5.4 32 5.4C32.8 5.3 33.7 6.1 34.2 5.9C34.8 5.8 34.8 4.2 35 4.5C35.2 4.8 35.4 7.7 35.6 7.7C35.7 7.7 35.8 5.3 36.1 4.5C36.4 3.7 36.7 3 37.3 3Z" fill="#D5ECE9"/><circle cx="38.5" cy="4.6" r="1" fill="#0E6B6B" fill-opacity="0.42"/><circle cx="31" cy="7.2" r="1" fill="#0E6B6B" fill-opacity="0.74"/><circle cx="34" cy="7.2" r="1" fill="#0E6B6B" fill-opacity="0.65"/><circle cx="37" cy="7.2" r="1" fill="#0E6B6B" fill-opacity="0.54"/><circle cx="43" cy="7.2" r="1.3" fill="#E8604C"/><circle cx="46" cy="7.2" r="1" fill="#0E6B6B" fill-opacity="0.49"/><circle cx="29.5" cy="9.8" r="1" fill="#0E6B6B" fill-opacity="0.63"/><circle cx="32.5" cy="9.8" r="1" fill="#0E6B6B" fill-opacity="0.62"/><circle cx="35.5" cy="9.8" r="1.3" fill="#E8604C"/><circle cx="38.5" cy="9.8" r="1.3" fill="#E8604C"/><circle cx="41.5" cy="9.8" r="1" fill="#0E6B6B" fill-opacity="0.57"/><circle cx="44.5" cy="9.8" r="1" fill="#0E6B6B" fill-opacity="0.57"/><circle cx="47.5" cy="9.8" r="1" fill="#0E6B6B" fill-opacity="0.59"/><circle cx="28" cy="12.4" r="1.3" fill="#E8604C"/><circle cx="31" cy="12.4" r="1" fill="#0E6B6B" fill-opacity="0.51"/><circle cx="34" cy="12.4" r="1" fill="#0E6B6B" fill-opacity="0.57"/><circle cx="37" cy="12.4" r="1" fill="#0E6B6B" fill-opacity="0.64"/><circle cx="40" cy="12.4" r="1" fill="#0E6B6B" fill-opacity="0.7"/><circle cx="43" cy="12.4" r="1" fill="#0E6B6B" fill-opacity="0.71"/><circle cx="46" cy="12.4" r="1" fill="#0E6B6B" fill-opacity="0.67"/><circle cx="49" cy="12.4" r="1" fill="#0E6B6B" fill-opacity="0.6"/><circle cx="32.5" cy="15" r="1" fill="#0E6B6B" fill-opacity="0.46"/><circle cx="35.5" cy="15" r="1" fill="#0E6B6B" fill-opacity="0.61"/><circle cx="38.5" cy="15" r="1" fill="#0E6B6B" fill-opacity="0.75"/><circle cx="41.5" cy="15" r="1" fill="#0E6B6B" fill-opacity="0.83"/><circle cx="44.5" cy="15" r="1" fill="#0E6B6B" fill-opacity="0.8"/><circle cx="47.5" cy="15" r="1" fill="#0E6B6B" fill-opacity="0.68"/><circle cx="50.5" cy="15" r="1.3" fill="#E8604C"/><circle cx="31" cy="17.6" r="1" fill="#0E6B6B" fill-opacity="0.35"/><circle cx="34" cy="17.6" r="1" fill="#0E6B6B" fill-opacity="0.51"/><circle cx="37" cy="17.6" r="1" fill="#0E6B6B" fill-opacity="0.71"/><circle cx="40" cy="17.6" r="1" fill="#0E6B6B" fill-opacity="0.86"/><circle cx="43" cy="17.6" r="1" fill="#0E6B6B" fill-opacity="0.89"/><circle cx="46" cy="17.6" r="1" fill="#0E6B6B" fill-opacity="0.79"/><circle cx="49" cy="17.6" r="1" fill="#0E6B6B" fill-opacity="0.6"/><circle cx="52" cy="17.6" r="1" fill="#0E6B6B" fill-opacity="0.41"/><circle cx="17.5" cy="20.2" r="1" fill="#0E6B6B" fill-opacity="0.83"/><circle cx="20.5" cy="20.2" r="1" fill="#0E6B6B" fill-opacity="0.68"/><circle cx="23.5" cy="20.2" r="1" fill="#0E6B6B" fill-opacity="0.48"/><circle cx="26.5" cy="20.2" r="1.3" fill="#E8604C"/><circle cx="29.5" cy="20.2" r="1" fill="#0E6B6B" fill-opacity="0.32"/><circle cx="32.5" cy="20.2" r="1" fill="#0E6B6B" fill-opacity="0.43"/><circle cx="35.5" cy="20.2" r="1" fill="#0E6B6B" fill-opacity="0.61"/><circle cx="38.5" cy="20.2" r="1" fill="#0E6B6B" fill-opacity="0.79"/><circle cx="41.5" cy="20.2" r="1" fill="#0E6B6B" fill-opacity="0.88"/><circle cx="44.5" cy="20.2" r="1" fill="#0E6B6B" fill-opacity="0.85"/><circle cx="47.5" cy="20.2" r="1" fill="#0E6B6B" fill-opacity="0.7"/><circle cx="16" cy="22.8" r="1" fill="#0E6B6B" fill-opacity="0.8"/><circle cx="19" cy="22.8" r="1" fill="#0E6B6B" fill-opacity="0.72"/><circle cx="22" cy="22.8" r="1" fill="#0E6B6B" fill-opacity="0.58"/><circle cx="25" cy="22.8" r="1" fill="#0E6B6B" fill-opacity="0.45"/><circle cx="28" cy="22.8" r="1" fill="#0E6B6B" fill-opacity="0.39"/><circle cx="31" cy="22.8" r="1" fill="#0E6B6B" fill-opacity="0.42"/><circle cx="34" cy="22.8" r="1" fill="#0E6B6B" fill-opacity="0.54"/><circle cx="37" cy="22.8" r="1" fill="#0E6B6B" fill-opacity="0.68"/><circle cx="40" cy="22.8" r="1" fill="#0E6B6B" fill-opacity="0.79"/><circle cx="43" cy="22.8" r="1" fill="#0E6B6B" fill-opacity="0.81"/><circle cx="46" cy="22.8" r="1" fill="#0E6B6B" fill-opacity="0.73"/><circle cx="20.5" cy="25.4" r="1.3" fill="#E8604C"/><circle cx="23.5" cy="25.4" r="1" fill="#0E6B6B" fill-opacity="0.56"/><circle cx="26.5" cy="25.4" r="1" fill="#0E6B6B" fill-opacity="0.52"/><circle cx="29.5" cy="25.4" r="1" fill="#0E6B6B" fill-opacity="0.52"/><circle cx="32.5" cy="25.4" r="1" fill="#0E6B6B" fill-opacity="0.55"/><circle cx="35.5" cy="25.4" r="1" fill="#0E6B6B" fill-opacity="0.6"/><circle cx="38.5" cy="25.4" r="1" fill="#0E6B6B" fill-opacity="0.66"/><circle cx="41.5" cy="25.4" r="1" fill="#0E6B6B" fill-opacity="0.68"/><circle cx="44.5" cy="25.4" r="1" fill="#0E6B6B" fill-opacity="0.67"/><circle cx="19" cy="28" r="1" fill="#0E6B6B" fill-opacity="0.57"/><circle cx="22" cy="28" r="1" fill="#0E6B6B" fill-opacity="0.6"/><circle cx="25" cy="28" r="1" fill="#0E6B6B" fill-opacity="0.64"/><circle cx="28" cy="28" r="1" fill="#0E6B6B" fill-opacity="0.66"/><circle cx="31" cy="28" r="1" fill="#0E6B6B" fill-opacity="0.65"/><circle cx="34" cy="28" r="1" fill="#0E6B6B" fill-opacity="0.62"/><circle cx="37" cy="28" r="1" fill="#0E6B6B" fill-opacity="0.58"/><circle cx="40" cy="28" r="1" fill="#0E6B6B" fill-opacity="0.55"/><circle cx="43" cy="28" r="1" fill="#0E6B6B" fill-opacity="0.54"/><circle cx="46" cy="28" r="1" fill="#0E6B6B" fill-opacity="0.56"/><circle cx="14.5" cy="30.6" r="1.3" fill="#E8604C"/><circle cx="17.5" cy="30.6" r="1" fill="#0E6B6B" fill-opacity="0.44"/><circle cx="20.5" cy="30.6" r="1" fill="#0E6B6B" fill-opacity="0.55"/><circle cx="23.5" cy="30.6" r="1" fill="#0E6B6B" fill-opacity="0.68"/><circle cx="26.5" cy="30.6" r="1.3" fill="#E8604C"/><circle cx="29.5" cy="30.6" r="1" fill="#0E6B6B" fill-opacity="0.79"/><circle cx="32.5" cy="30.6" r="1" fill="#0E6B6B" fill-opacity="0.72"/><circle cx="35.5" cy="30.6" r="1" fill="#0E6B6B" fill-opacity="0.59"/><circle cx="38.5" cy="30.6" r="1" fill="#0E6B6B" fill-opacity="0.47"/><circle cx="41.5" cy="30.6" r="1" fill="#0E6B6B" fill-opacity="0.41"/><circle cx="44.5" cy="30.6" r="1.3" fill="#E8604C"/><circle cx="47.5" cy="30.6" r="1" fill="#0E6B6B" fill-opacity="0.54"/><circle cx="19" cy="33.2" r="1" fill="#0E6B6B" fill-opacity="0.44"/><circle cx="22" cy="33.2" r="1.3" fill="#E8604C"/><circle cx="25" cy="33.2" r="1.3" fill="#E8604C"/><circle cx="28" cy="33.2" r="1" fill="#0E6B6B" fill-opacity="0.88"/><circle cx="31" cy="33.2" r="1" fill="#0E6B6B" fill-opacity="0.83"/><circle cx="34" cy="33.2" r="1" fill="#0E6B6B" fill-opacity="0.68"/><circle cx="37" cy="33.2" r="1" fill="#0E6B6B" fill-opacity="0.5"/><circle cx="40" cy="33.2" r="1" fill="#0E6B6B" fill-opacity="0.35"/><circle cx="43" cy="33.2" r="1.3" fill="#E8604C"/><circle cx="46" cy="33.2" r="1.3" fill="#E8604C"/><circle cx="26.5" cy="35.8" r="1" fill="#0E6B6B" fill-opacity="0.87"/><circle cx="29.5" cy="35.8" r="1" fill="#0E6B6B" fill-opacity="0.89"/><circle cx="32.5" cy="35.8" r="1" fill="#0E6B6B" fill-opacity="0.78"/><circle cx="35.5" cy="35.8" r="1" fill="#0E6B6B" fill-opacity="0.59"/><circle cx="38.5" cy="35.8" r="1" fill="#0E6B6B" fill-opacity="0.4"/><circle cx="41.5" cy="35.8" r="1" fill="#0E6B6B" fill-opacity="0.31"/><circle cx="44.5" cy="35.8" r="1" fill="#0E6B6B" fill-opacity="0.34"/><circle cx="47.5" cy="35.8" r="1.3" fill="#E8604C"/><circle cx="22" cy="38.4" r="1" fill="#0E6B6B" fill-opacity="0.62"/><circle cx="25" cy="38.4" r="1" fill="#0E6B6B" fill-opacity="0.77"/><circle cx="28" cy="38.4" r="1" fill="#0E6B6B" fill-opacity="0.84"/><circle cx="31" cy="38.4" r="1" fill="#0E6B6B" fill-opacity="0.81"/><circle cx="34" cy="38.4" r="1" fill="#0E6B6B" fill-opacity="0.67"/><circle cx="37" cy="38.4" r="1" fill="#0E6B6B" fill-opacity="0.51"/><circle cx="40" cy="38.4" r="1" fill="#0E6B6B" fill-opacity="0.38"/><circle cx="43" cy="38.4" r="1" fill="#0E6B6B" fill-opacity="0.36"/><circle cx="46" cy="38.4" r="1" fill="#0E6B6B" fill-opacity="0.44"/><circle cx="20.5" cy="41" r="1" fill="#0E6B6B" fill-opacity="0.56"/><circle cx="23.5" cy="41" r="1.3" fill="#E8604C"/><circle cx="26.5" cy="41" r="1" fill="#0E6B6B" fill-opacity="0.72"/><circle cx="29.5" cy="41" r="1" fill="#0E6B6B" fill-opacity="0.73"/><circle cx="32.5" cy="41" r="1" fill="#0E6B6B" fill-opacity="0.68"/><circle cx="35.5" cy="41" r="1" fill="#0E6B6B" fill-opacity="0.59"/><circle cx="38.5" cy="41" r="1" fill="#0E6B6B" fill-opacity="0.51"/><circle cx="41.5" cy="41" r="1.3" fill="#E8604C"/><circle cx="44.5" cy="41" r="1" fill="#0E6B6B" fill-opacity="0.48"/><circle cx="47.5" cy="41" r="1" fill="#0E6B6B" fill-opacity="0.55"/><circle cx="25" cy="43.6" r="1" fill="#0E6B6B" fill-opacity="0.6"/><circle cx="28" cy="43.6" r="1.3" fill="#E8604C"/><circle cx="31" cy="43.6" r="1" fill="#0E6B6B" fill-opacity="0.59"/><circle cx="34" cy="43.6" r="1" fill="#0E6B6B" fill-opacity="0.6"/><circle cx="37" cy="43.6" r="1" fill="#0E6B6B" fill-opacity="0.6"/><circle cx="40" cy="43.6" r="1" fill="#0E6B6B" fill-opacity="0.61"/><circle cx="43" cy="43.6" r="1" fill="#0E6B6B" fill-opacity="0.61"/><circle cx="46" cy="43.6" r="1" fill="#0E6B6B" fill-opacity="0.6"/><circle cx="17.5" cy="46.2" r="1" fill="#0E6B6B" fill-opacity="0.72"/><circle cx="20.5" cy="46.2" r="1" fill="#0E6B6B" fill-opacity="0.64"/><circle cx="23.5" cy="46.2" r="1" fill="#0E6B6B" fill-opacity="0.54"/><circle cx="26.5" cy="46.2" r="1" fill="#0E6B6B" fill-opacity="0.47"/><circle cx="29.5" cy="46.2" r="1" fill="#0E6B6B" fill-opacity="0.46"/><circle cx="32.5" cy="46.2" r="1" fill="#0E6B6B" fill-opacity="0.51"/><circle cx="35.5" cy="46.2" r="1" fill="#0E6B6B" fill-opacity="0.61"/><circle cx="38.5" cy="46.2" r="1" fill="#0E6B6B" fill-opacity="0.7"/><circle cx="41.5" cy="46.2" r="1" fill="#0E6B6B" fill-opacity="0.75"/><circle cx="44.5" cy="46.2" r="1.3" fill="#E8604C"/><circle cx="19" cy="48.8" r="1.3" fill="#E8604C"/><circle cx="22" cy="48.8" r="1" fill="#0E6B6B" fill-opacity="0.58"/><circle cx="25" cy="48.8" r="1" fill="#0E6B6B" fill-opacity="0.42"/><circle cx="28" cy="48.8" r="1" fill="#0E6B6B" fill-opacity="0.35"/><circle cx="31" cy="48.8" r="1" fill="#0E6B6B" fill-opacity="0.39"/><circle cx="34" cy="48.8" r="1" fill="#0E6B6B" fill-opacity="0.52"/><circle cx="37" cy="48.8" r="1" fill="#0E6B6B" fill-opacity="0.7"/><circle cx="40" cy="48.8" r="1.3" fill="#E8604C"/><circle cx="43" cy="48.8" r="1.3" fill="#E8604C"/><circle cx="17.5" cy="51.4" r="1" fill="#0E6B6B" fill-opacity="0.84"/><circle cx="20.5" cy="51.4" r="1" fill="#0E6B6B" fill-opacity="0.68"/><circle cx="23.5" cy="51.4" r="1" fill="#0E6B6B" fill-opacity="0.48"/><circle cx="26.5" cy="51.4" r="1" fill="#0E6B6B" fill-opacity="0.33"/><circle cx="29.5" cy="51.4" r="1.3" fill="#E8604C"/><circle cx="32.5" cy="51.4" r="1" fill="#0E6B6B" fill-opacity="0.42"/><circle cx="13" cy="54" r="1" fill="#0E6B6B" fill-opacity="0.85"/><circle cx="16" cy="54" r="1" fill="#0E6B6B" fill-opacity="0.86"/><circle cx="19" cy="54" r="1" fill="#0E6B6B" fill-opacity="0.76"/><circle cx="22" cy="54" r="1" fill="#0E6B6B" fill-opacity="0.58"/><circle cx="25" cy="54" r="1" fill="#0E6B6B" fill-opacity="0.41"/><circle cx="28" cy="54" r="1.3" fill="#E8604C"/><circle cx="31" cy="54" r="1" fill="#0E6B6B" fill-opacity="0.37"/><circle cx="17.5" cy="56.6" r="1" fill="#0E6B6B" fill-opacity="0.75"/><circle cx="20.5" cy="56.6" r="1" fill="#0E6B6B" fill-opacity="0.65"/><circle cx="23.5" cy="56.6" r="1" fill="#0E6B6B" fill-opacity="0.53"/><circle cx="26.5" cy="56.6" r="1" fill="#0E6B6B" fill-opacity="0.44"/><circle cx="19" cy="59.2" r="1" fill="#0E6B6B" fill-opacity="0.63"/><circle cx="22" cy="59.2" r="1" fill="#0E6B6B" fill-opacity="0.6"/></g><path d="M93.93 46.5L84.08 46.5L74.62 17.46L82.36 17.46L88.74 40.56L89.36 40.56L95.74 17.46L103.39 17.46L93.93 46.5ZM114.26 46.5L107.04 46.5L107.04 17.46L114.26 17.46L114.26 46.5ZM134.02 46.5L120.38 46.5L120.38 17.46L132.92 17.46Q135.64 17.46 137.82 17.92Q140 18.38 141.54 19.33Q143.08 20.28 143.89 21.75Q144.71 23.22 144.71 25.25L144.71 25.25Q144.71 26.96 143.98 28.24Q143.26 29.52 141.72 30.31Q140.18 31.1 137.62 31.36L137.62 31.36L137.62 32.11Q141.85 32.38 143.87 34.14Q145.9 35.9 145.9 38.89L145.9 38.89Q145.9 41.44 144.53 43.11Q143.17 44.78 140.53 45.64Q137.89 46.5 134.02 46.5L134.02 46.5ZM127.15 33.96L127.15 40.87L133.75 40.87Q136.44 40.87 137.71 40.1Q138.99 39.33 138.99 37.66L138.99 37.66Q138.99 35.81 137.45 34.88Q135.91 33.96 132.74 33.96L132.74 33.96L127.15 33.96ZM127.15 23L127.15 29.65L131.77 29.65Q134.9 29.65 136.35 28.79Q137.8 27.93 137.8 26.22L137.8 26.22Q137.8 24.54 136.46 23.77Q135.12 23 132.39 23L132.39 23L127.15 23ZM173.88 46.5L150.82 46.5L150.82 17.46L173.75 17.46L173.75 23.14L157.95 23.14L157.95 29.3L171.64 29.3L171.64 34.44L157.95 34.44L157.95 40.78L173.88 40.78L173.88 46.5Z" fill="#0E6B6B"/></svg>
